<?xml version="1.0" encoding="UTF-8"?>
<svg id="Lick_Line" data-name="Lick Line" xmlns="http://www.w3.org/2000/svg" viewBox="0 0 1920 418.04">
  <defs>
    <style>
      .cls-1 {
        fill: #e4032c;
      }
    </style>
  </defs>
  <path class="cls-1" d="m1563.87,257.44c-87.73,37.55-163.5,69.99-258.29,55.42-58.28-8.96-118.62-77.56-176.97-143.9C1052.39,82.29,973.52-7.33,877.41.48c-67.78,5.51-132.72,59.3-198.54,164.45-24.1,38.51-44.32,68.22-66.73,71.43-17.14,2.47-40.96-9.71-70.75-36.19-29.81-26.5-58.06-38.38-86.27-36.31-47.61,3.48-83.45,46.18-121.39,91.39-34.68,41.32-73.98,88.15-125.81,109.22-58.25,23.67-126.28,11.9-207.91-35.96v47.64c52.84,27.97,101.29,41.89,146.22,41.89,26.99,0,52.72-5.02,77.35-15.03,61.4-24.95,104.23-75.99,142.02-121.02,33.53-39.95,62.48-74.45,92.56-76.65,16.45-1.18,34.63,7.28,55.6,25.92,40.47,35.97,73.62,50.68,104.29,46.27,43.31-6.21,70.14-49.08,96.08-90.54,57.55-91.94,113.62-140.75,166.65-145.05,75.35-6.08,147.16,75.53,216.61,154.49,66.17,75.23,128.67,146.29,201.89,157.54,106.54,16.39,191.27-19.89,280.98-58.29,90.12-38.58,192.19-82.24,339.76-85.4v-41.61c-156.09,3.17-262.34,48.63-356.13,88.77Z"/>
</svg>