<?xml version="1.0" encoding="UTF-8"?>
<svg id="TMICC_Monogram" xmlns="http://www.w3.org/2000/svg" version="1.1" viewBox="0 0 425.2 496.65">
  <!-- Generator: Adobe Illustrator 29.1.0, SVG Export Plug-In . SVG Version: 2.1.0 Build 142)  -->
  <defs>
    <style>
      .st0 {
        fill: #e4032c;
      }

      .st1 {
        fill: #212721;
      }
    </style>
  </defs>
  <path class="st1" d="M310.7,273.47c.69-1.45,2.17-2.22,3.76-1.95,1.59.27,2.73,1.48,2.91,3.08l18.72,171.3c1.8,18.78-3.53,35.63-14.64,46.24-.93.89-.92,2.04-.61,2.83.32.81,1.15,1.68,2.48,1.68h99.23c1.35,0,2.16-.87,2.47-1.69.31-.83.28-2.06-.76-2.97-13.66-12.03-24.05-30.83-26.47-47.89l-30-275.58c-.31-2.84-2.7-4.98-5.56-4.98l-61.16-.07c-4.43,0-8.82,3.48-10.78,7.75l-76.43,173.89c-.49,1.1-2.06,1.1-2.55,0l-76.33-173.68c-1.96-4.26-5.82-7.72-10.57-7.96-8.38-.42-27.1-1.13-30.68-1.39-36.47-2.65-44.14-5.81-66.87-15.21-3.24-1.37-11.92-5.66-11.92-5.66-1.6-.81-3.77-1.45-3.56,2.34.75,13.94,9.98,26.7,18.08,37.96.86,1.2,5.09,7,6.34,8.62,7.76,10.05,15.19,18.73,13.7,48.49-.14,2.82-1.33,14.65-1.88,19.63,0,0-19.76,181.59-20.23,185.84-2.42,17.08-12.81,35.88-26.46,47.9-1.04.92-1.08,2.14-.76,2.98.31.81,1.12,1.69,2.47,1.69h99.23c1.33,0,2.15-.86,2.48-1.68.31-.79.32-1.95-.61-2.83-11.1-10.61-16.44-27.46-14.64-46.23l18.72-171.3c.18-1.6,1.32-2.81,2.91-3.08,1.59-.27,3.07.5,3.76,1.95l93.93,201.19c1.65,3.54,6.69,3.54,8.34,0l93.94-201.2Z"/>
  <path class="st1" d="M403.11,140.59c12.29,0,22.08,9.84,22.08,22.14s-9.79,22.25-22.17,22.25-22.27-9.74-22.27-22.25,9.99-22.14,22.27-22.14h.09ZM403.02,144.03c-9.89,0-17.98,8.36-17.98,18.7s8.09,18.81,18.07,18.81c9.99.09,17.99-8.27,17.99-18.71s-8.01-18.8-17.99-18.8h-.09ZM398.9,175.61h-3.95v-24.69c2.06-.3,4.04-.58,6.99-.58,3.75,0,6.21.77,7.68,1.84,1.48,1.09,2.27,2.77,2.27,5.12,0,3.26-2.18,5.24-4.82,6.01v.2c2.17.39,3.64,2.36,4.11,6,.61,3.85,1.2,5.31,1.59,6.1h-4.13c-.62-.79-1.19-3.05-1.68-6.28-.6-3.15-2.16-4.33-5.33-4.33h-2.74v10.61ZM398.9,161.95h2.85c3.24,0,5.99-1.18,5.99-4.24,0-2.16-1.56-4.32-5.99-4.32-1.27,0-2.17.09-2.85.18v8.38Z"/>
  <path class="st0" d="M293.11,75.2c0,25.34-21.89,50.67-40.42,62.26-18.94,11.91-36.99,17.28-41.52,16.92-72.79-6.02-137.26-48.63-137.26-98.83C73.92,30.81,92.59,0,144.84,0c28.94,0,53.76,11.78,64.99,20.49,1.98,1.56,3.12,1.37,4.73.29C222,15.76,244.61.17,275.7.17c37.55,0,75.57,19.19,75.57,61.05,0,25.59-17.23,52.3-46.87,70.55-7.47,4.64-16.22,8.59-25.64,12.01-5.37,1.93-7.75-.35-2.11-4.51,13.91-10.43,49.45-37.91,49.45-72.26,0-23.33-21.38-46.61-58.31-46.61-28.16,0-48.96,15.96-52.85,18.62-1.99,1.37-3.32,1.19-5.05-.32-10.11-9.22-30.89-19.07-54.89-19.07-29.36,0-55.8,16.35-55.8,45.37,0,52.82,90.81,74.59,112.86,74.59,5.4,0,54.06-17.17,54.06-58.47,0-14.56-8.99-24.18-20.82-24.18-15.52,0-24.39,13.14-30.42,20.45-1.38,1.69-3.5,2.47-4.81,0-5.32-9.8-15.81-20.73-30.08-20.73-12.69,0-20.29,9.3-20.29,19.55,0,24.05,33.17,38.98,48.62,44.37,3.02,1.08,2.99,4.3-1.22,3.88-22.03-2.11-76.7-18.91-76.7-54.8,0-14.83,12.6-31.26,37.77-31.26,16.99,0,33.01,9.39,42.5,20.89.89,1.13,2.44.95,3.25.11.85-.8,20.51-20.3,44.1-20.3,16.88,0,35.07,11.6,35.07,36.1"/>
</svg>